# xmcd CD database file
#
# Track frame offsets:
#	150
#	8597
#	22341
#	38608
#	51400
#	64550
#	83822
#	99099
#	115298
#	131893
#	145302
#	161149
#	176711
#	194636
#	209790
#	224722
#	259947
#	263417
#	276073
#	290740
#
# Disc length: 4031 seconds
#
# Revision: 1
# Processed by: cddbd v1.5.2PL0 Copyright (c) Steve Scherf et al.
# Submitted via: CDex 1.70beta2
#
DISCID=3d0fbd14
DTITLE=Blues Brothers - The definitive collection
DYEAR=1900
DGENRE=Blues
TTITLE0=Opening. I can't turn you loose
TTITLE1=Hey Bartender
TTITLE2=Messin' with the kid
TTITLE3=(I got everything I need) Almost
TTITLE4=Rubber biscuit
TTITLE5=I don't know
TTITLE6=Soul man
TTITLE7=Who's making love
TTITLE8=Do you love me
TTITLE9=Guilty
TTITLE10=Riot in cell block number nine
TTITLE11=From the bottom
TTITLE12=Going back to Miami
TTITLE13=Everybody need somebody to love
TTITLE14=Expressway to your heart
TTITLE15=Sweet home chicago
TTITLE16=Closeing. I can't turn you loose
TTITLE17=Skake your tailfeather (f. Ray Charles)
TTITLE18=Think (f. Aretha Franklin)
TTITLE19=Gimme some lovin'
EXTD=
EXTT0=
EXTT1=
EXTT2=
EXTT3=
EXTT4=
EXTT5=
EXTT6=
EXTT7=
EXTT8=
EXTT9=
EXTT10=
EXTT11=
EXTT12=
EXTT13=
EXTT14=
EXTT15=
EXTT16=
EXTT17=
EXTT18=
EXTT19=
PLAYORDER=
